<?xml version="1.0" standalone="no"?><!-- Generator: Gravit.io --><svg xmlns="http://www.w3.org/2000/svg" xmlns:xlink="http://www.w3.org/1999/xlink" style="isolation:isolate" viewBox="-106.124 862.943 44.248 70.78" width="44.248" height="70.78"><defs><clipPath id="_clipPath_beC9z61q3jVOkl0MYHWEQ99OTkoaFcWc"><rect x="-106.124" y="862.943" width="44.248" height="70.78"/></clipPath></defs><g clip-path="url(#_clipPath_beC9z61q3jVOkl0MYHWEQ99OTkoaFcWc)"><path d=" M -61.876 867.348 C -61.876 868.578 -62.389 869.808 -63.389 870.684 L -94.976 898.324 L -63.389 925.965 C -61.549 927.575 -61.363 930.371 -62.973 932.212 C -64.583 934.052 -67.379 934.238 -69.22 932.628 L -104.611 901.66 C -105.567 900.82 -106.124 899.607 -106.124 898.333 C -106.124 897.059 -105.575 895.847 -104.611 895.007 L -69.22 864.039 C -67.379 862.429 -64.583 862.615 -62.973 864.455 C -62.239 865.295 -61.876 866.331 -61.876 867.366 L -61.876 867.348 Z " fill="rgb(255,254,254)"/></g></svg>