<?xml version="1.0" standalone="no"?><!-- Generator: Gravit.io --><svg xmlns="http://www.w3.org/2000/svg" xmlns:xlink="http://www.w3.org/1999/xlink" style="isolation:isolate" viewBox="-106.124 862.61 44.248 70.78" width="44.248" height="70.78"><defs><clipPath id="_clipPath_PSe5a7WUIi1h0EdOI8UKUp3CNGPSl7Cu"><rect x="-106.124" y="862.61" width="44.248" height="70.78"/></clipPath></defs><g clip-path="url(#_clipPath_PSe5a7WUIi1h0EdOI8UKUp3CNGPSl7Cu)"><path d=" M -106.124 928.985 C -106.124 927.755 -105.611 926.525 -104.611 925.65 L -73.024 898.009 L -104.611 870.368 C -106.452 868.758 -106.637 865.962 -105.027 864.122 C -103.417 862.281 -100.621 862.095 -98.781 863.706 L -63.389 894.673 C -62.433 895.514 -61.876 896.726 -61.876 898 C -61.876 899.274 -62.425 900.486 -63.389 901.327 L -98.78 932.294 C -100.621 933.905 -103.417 933.719 -105.027 931.878 C -105.761 931.038 -106.124 930.003 -106.124 928.967 L -106.124 928.985 Z " fill="rgb(255,254,254)"/></g></svg>