<?xml version="1.0" encoding="UTF-8" standalone="no"?><!-- Generator: Gravit.io --><svg xmlns="http://www.w3.org/2000/svg" xmlns:xlink="http://www.w3.org/1999/xlink" style="isolation:isolate" viewBox="-1392 -2117 5709 6767" width="5709pt" height="6767pt"><defs><clipPath id="_clipPath_wKXD7CpynyAIqjWNg8DBYSuTBhIz9gOw"><rect x="-1392" y="-2117" width="5709" height="6767"/></clipPath></defs><g clip-path="url(#_clipPath_wKXD7CpynyAIqjWNg8DBYSuTBhIz9gOw)"><rect x="-1392" y="-2117" width="5709" height="6767" transform="matrix(1,0,0,1,0,0)" fill="rgb(255,255,255)"/><clipPath id="_clipPath_YtzFdk9XhTe2oh6af1IrabPL7OOVCtns"><rect x="-1392" y="-2117" width="5709" height="6767" transform="matrix(1,0,0,1,0,0)" fill="rgb(255,255,255)"/></clipPath><g clip-path="url(#_clipPath_YtzFdk9XhTe2oh6af1IrabPL7OOVCtns)"><g><path d=" M 4605.367 -1758 C 5198.795 -1658.333 -628.312 -2200 648.818 -800 Q 1925.948 600 -1617 1900 Q 2042.835 574.333 694.134 -842 C -654.567 -2258.333 4011.939 -1857.667 4605.367 -1758 Z " fill="rgb(255,255,255)" vector-effect="non-scaling-stroke" stroke-width="1" stroke="rgb(232,232,232)" stroke-linejoin="miter" stroke-linecap="square" stroke-miterlimit="3"/><path d=" M 4622.63 -1668 C 5216.059 -1568.333 -611.049 -2110 666.081 -710 Q 1943.211 690 -1599.737 1990 Q 2060.098 664.333 711.397 -752 C -637.304 -2168.333 4029.202 -1767.667 4622.63 -1668 Z " fill="rgb(255,255,255)" vector-effect="non-scaling-stroke" stroke-width="1" stroke="rgb(232,232,232)" stroke-linejoin="miter" stroke-linecap="square" stroke-miterlimit="3"/><path d=" M 4639.894 -1578 C 5233.322 -1478.333 -593.786 -2020 683.344 -620 Q 1960.474 780 -1582.473 2080 Q 2077.362 754.333 728.661 -662 C -620.04 -2078.333 4046.465 -1677.667 4639.894 -1578 Z " fill="rgb(255,255,255)" vector-effect="non-scaling-stroke" stroke-width="1" stroke="rgb(232,232,232)" stroke-linejoin="miter" stroke-linecap="square" stroke-miterlimit="3"/><path d=" M 4657.157 -1488 C 5250.586 -1388.333 -576.522 -1930 700.608 -530 Q 1977.738 870 -1565.21 2170 Q 2094.625 844.333 745.924 -572 C -602.777 -1988.333 4063.729 -1587.667 4657.157 -1488 Z " fill="rgb(255,255,255)" vector-effect="non-scaling-stroke" stroke-width="1" stroke="rgb(232,232,232)" stroke-linejoin="miter" stroke-linecap="square" stroke-miterlimit="3"/><path d=" M 4674.421 -1398 C 5267.849 -1298.333 -559.259 -1840 717.871 -440 Q 1995.001 960 -1547.947 2260 Q 2111.889 934.333 763.188 -482 C -585.513 -1898.333 4080.992 -1497.667 4674.421 -1398 Z " fill="rgb(255,255,255)" vector-effect="non-scaling-stroke" stroke-width="1" stroke="rgb(232,232,232)" stroke-linejoin="miter" stroke-linecap="square" stroke-miterlimit="3"/><path d=" M 4605.367 -1758 C 5198.795 -1658.333 -628.312 -2200 648.818 -800 Q 1925.948 600 -1617 1900 Q 2042.835 574.333 694.134 -842 C -654.567 -2258.333 4011.939 -1857.667 4605.367 -1758 Z " fill="rgb(255,255,255)" vector-effect="non-scaling-stroke" stroke-width="1" stroke="rgb(232,232,232)" stroke-linejoin="miter" stroke-linecap="square" stroke-miterlimit="3"/><path d=" M 4622.63 -1668 C 5216.059 -1568.333 -611.049 -2110 666.081 -710 Q 1943.211 690 -1599.737 1990 Q 2060.098 664.333 711.397 -752 C -637.304 -2168.333 4029.202 -1767.667 4622.63 -1668 Z " fill="rgb(255,255,255)" vector-effect="non-scaling-stroke" stroke-width="1" stroke="rgb(232,232,232)" stroke-linejoin="miter" stroke-linecap="square" stroke-miterlimit="3"/><path d=" M 4639.894 -1578 C 5233.322 -1478.333 -593.786 -2020 683.344 -620 Q 1960.474 780 -1582.473 2080 Q 2077.362 754.333 728.661 -662 C -620.04 -2078.333 4046.465 -1677.667 4639.894 -1578 Z " fill="rgb(255,255,255)" vector-effect="non-scaling-stroke" stroke-width="1" stroke="rgb(232,232,232)" stroke-linejoin="miter" stroke-linecap="square" stroke-miterlimit="3"/><path d=" M 4657.157 -1488 C 5250.586 -1388.333 -576.522 -1930 700.608 -530 Q 1977.738 870 -1565.21 2170 Q 2094.625 844.333 745.924 -572 C -602.777 -1988.333 4063.729 -1587.667 4657.157 -1488 Z " fill="rgb(255,255,255)" vector-effect="non-scaling-stroke" stroke-width="1" stroke="rgb(232,232,232)" stroke-linejoin="miter" stroke-linecap="square" stroke-miterlimit="3"/><path d=" M 4674.421 -1398 C 5267.849 -1298.333 -559.259 -1840 717.871 -440 Q 1995.001 960 -1547.947 2260 Q 2111.889 934.333 763.188 -482 C -585.513 -1898.333 4080.992 -1497.667 4674.421 -1398 Z " fill="rgb(255,255,255)" vector-effect="non-scaling-stroke" stroke-width="1" stroke="rgb(232,232,232)" stroke-linejoin="miter" stroke-linecap="square" stroke-miterlimit="3"/></g><g><path d=" M 3883.265 -163.38 C 3115.647 -217.209 3013.793 1051.967 1549.487 1440.136 C 85.182 1828.306 -1214.269 2390.969 -1320.609 2392.418 Q 1103.777 1440.317 1538.086 1374.114 C 1972.395 1307.91 4650.883 -109.551 3883.265 -163.38 Z " fill="rgb(255,255,255)" vector-effect="non-scaling-stroke" stroke-width="1" stroke="rgb(232,232,232)" stroke-linejoin="miter" stroke-linecap="square" stroke-miterlimit="3"/><path d=" M 3883.265 -163.38 C 3115.647 -217.209 3013.793 1051.967 1549.487 1440.136 C 85.182 1828.306 -1214.269 2390.969 -1320.609 2392.418 Q 1103.777 1440.317 1538.086 1374.114 C 1972.395 1307.91 4650.883 -109.551 3883.265 -163.38 Z " fill="rgb(255,255,255)" vector-effect="non-scaling-stroke" stroke-width="1" stroke="rgb(232,232,232)" stroke-linejoin="miter" stroke-linecap="square" stroke-miterlimit="3"/><path d=" M 3872.204 -227.432 C 3104.586 -281.261 3002.732 987.915 1538.426 1376.084 C 74.121 1764.254 -1225.33 2326.917 -1331.67 2328.366 Q 1092.716 1376.265 1527.025 1310.062 C 1961.334 1243.858 4639.822 -173.603 3872.204 -227.432 Z " fill="rgb(255,255,255)" vector-effect="non-scaling-stroke" stroke-width="1" stroke="rgb(232,232,232)" stroke-linejoin="miter" stroke-linecap="square" stroke-miterlimit="3"/><path d=" M 3872.204 -227.432 C 3104.586 -281.261 3002.732 987.915 1538.426 1376.084 C 74.121 1764.254 -1225.33 2326.917 -1331.67 2328.366 Q 1092.716 1376.265 1527.025 1310.062 C 1961.334 1243.858 4639.822 -173.603 3872.204 -227.432 Z " fill="rgb(255,255,255)" vector-effect="non-scaling-stroke" stroke-width="1" stroke="rgb(232,232,232)" stroke-linejoin="miter" stroke-linecap="square" stroke-miterlimit="3"/><path d=" M 3860.973 -292.47 C 3093.355 -346.299 2991.501 922.877 1527.196 1311.047 C 62.89 1699.217 -1236.561 2261.879 -1342.901 2263.329 Q 1081.486 1311.228 1515.794 1245.024 C 1950.103 1178.821 4628.591 -238.64 3860.973 -292.47 Z " fill="rgb(255,255,255)" vector-effect="non-scaling-stroke" stroke-width="1" stroke="rgb(232,232,232)" stroke-linejoin="miter" stroke-linecap="square" stroke-miterlimit="3"/><path d=" M 3860.973 -292.47 C 3093.355 -346.299 2991.501 922.877 1527.196 1311.047 C 62.89 1699.217 -1236.561 2261.879 -1342.901 2263.329 Q 1081.486 1311.228 1515.794 1245.024 C 1950.103 1178.821 4628.591 -238.64 3860.973 -292.47 Z " fill="rgb(255,255,255)" vector-effect="non-scaling-stroke" stroke-width="1" stroke="rgb(232,232,232)" stroke-linejoin="miter" stroke-linecap="square" stroke-miterlimit="3"/><path d=" M 3849.742 -357.507 C 3082.124 -411.336 2980.27 857.84 1515.965 1246.01 C 51.659 1634.18 -1247.792 2196.842 -1354.132 2198.292 Q 1070.255 1246.19 1504.563 1179.987 C 1938.872 1113.783 4617.36 -303.678 3849.742 -357.507 Z " fill="rgb(255,255,255)" vector-effect="non-scaling-stroke" stroke-width="1" stroke="rgb(232,232,232)" stroke-linejoin="miter" stroke-linecap="square" stroke-miterlimit="3"/><path d=" M 3849.742 -357.507 C 3082.124 -411.336 2980.27 857.84 1515.965 1246.01 C 51.659 1634.18 -1247.792 2196.842 -1354.132 2198.292 Q 1070.255 1246.19 1504.563 1179.987 C 1938.872 1113.783 4617.36 -303.678 3849.742 -357.507 Z " fill="rgb(255,255,255)" vector-effect="non-scaling-stroke" stroke-width="1" stroke="rgb(232,232,232)" stroke-linejoin="miter" stroke-linecap="square" stroke-miterlimit="3"/><path d=" M 3838.511 -422.544 C 3070.893 -476.374 2969.039 792.802 1504.734 1180.972 C 40.428 1569.142 -1259.023 2131.804 -1365.363 2133.254 Q 1059.024 1181.153 1493.332 1114.949 C 1927.641 1048.746 4606.129 -368.715 3838.511 -422.544 Z " fill="rgb(255,255,255)" vector-effect="non-scaling-stroke" stroke-width="1" stroke="rgb(232,232,232)" stroke-linejoin="miter" stroke-linecap="square" stroke-miterlimit="3"/><path d=" M 3838.511 -422.544 C 3070.893 -476.374 2969.039 792.802 1504.734 1180.972 C 40.428 1569.142 -1259.023 2131.804 -1365.363 2133.254 Q 1059.024 1181.153 1493.332 1114.949 C 1927.641 1048.746 4606.129 -368.715 3838.511 -422.544 Z " fill="rgb(255,255,255)" vector-effect="non-scaling-stroke" stroke-width="1" stroke="rgb(232,232,232)" stroke-linejoin="miter" stroke-linecap="square" stroke-miterlimit="3"/><path d=" M 3827.28 -487.582 C 3059.662 -541.411 2957.808 727.765 1493.503 1115.935 C 29.197 1504.105 -1270.254 2066.767 -1376.594 2068.217 Q 1047.793 1116.116 1482.102 1049.912 C 1916.41 983.708 4594.898 -433.753 3827.28 -487.582 Z " fill="rgb(255,255,255)" vector-effect="non-scaling-stroke" stroke-width="1" stroke="rgb(232,232,232)" stroke-linejoin="miter" stroke-linecap="square" stroke-miterlimit="3"/><path d=" M 3827.28 -487.582 C 3059.662 -541.411 2957.808 727.765 1493.503 1115.935 C 29.197 1504.105 -1270.254 2066.767 -1376.594 2068.217 Q 1047.793 1116.116 1482.102 1049.912 C 1916.41 983.708 4594.898 -433.753 3827.28 -487.582 Z " fill="rgb(255,255,255)" vector-effect="non-scaling-stroke" stroke-width="1" stroke="rgb(232,232,232)" stroke-linejoin="miter" stroke-linecap="square" stroke-miterlimit="3"/><path d=" M 3816.049 -552.619 C 3048.431 -606.448 2946.577 662.727 1482.272 1050.897 C 17.966 1439.067 -1281.485 2001.729 -1387.825 2003.179 Q 1036.562 1051.078 1470.871 984.875 C 1905.179 918.671 4583.667 -498.79 3816.049 -552.619 Z " fill="rgb(255,255,255)" vector-effect="non-scaling-stroke" stroke-width="1" stroke="rgb(232,232,232)" stroke-linejoin="miter" stroke-linecap="square" stroke-miterlimit="3"/><path d=" M 3816.049 -552.619 C 3048.431 -606.448 2946.577 662.727 1482.272 1050.897 C 17.966 1439.067 -1281.485 2001.729 -1387.825 2003.179 Q 1036.562 1051.078 1470.871 984.875 C 1905.179 918.671 4583.667 -498.79 3816.049 -552.619 Z " fill="rgb(255,255,255)" vector-effect="non-scaling-stroke" stroke-width="1" stroke="rgb(232,232,232)" stroke-linejoin="miter" stroke-linecap="square" stroke-miterlimit="3"/><path d=" M 3804.818 -617.657 C 3037.2 -671.486 2935.346 597.69 1471.041 985.86 C 6.735 1374.03 -1292.716 1936.692 -1399.056 1938.142 Q 1025.331 986.041 1459.64 919.837 C 1893.948 853.634 4572.436 -563.827 3804.818 -617.657 Z " fill="rgb(255,255,255)" vector-effect="non-scaling-stroke" stroke-width="1" stroke="rgb(232,232,232)" stroke-linejoin="miter" stroke-linecap="square" stroke-miterlimit="3"/><path d=" M 3804.818 -617.657 C 3037.2 -671.486 2935.346 597.69 1471.041 985.86 C 6.735 1374.03 -1292.716 1936.692 -1399.056 1938.142 Q 1025.331 986.041 1459.64 919.837 C 1893.948 853.634 4572.436 -563.827 3804.818 -617.657 Z " fill="rgb(255,255,255)" vector-effect="non-scaling-stroke" stroke-width="1" stroke="rgb(232,232,232)" stroke-linejoin="miter" stroke-linecap="square" stroke-miterlimit="3"/><path d=" M 3793.588 -682.694 C 3025.969 -736.523 2924.115 532.653 1459.81 920.823 C -4.496 1308.992 -1303.947 1871.655 -1410.287 1873.104 Q 1014.1 921.003 1448.409 854.8 C 1882.717 788.596 4561.205 -628.865 3793.588 -682.694 Z " fill="rgb(255,255,255)" vector-effect="non-scaling-stroke" stroke-width="1" stroke="rgb(232,232,232)" stroke-linejoin="miter" stroke-linecap="square" stroke-miterlimit="3"/><path d=" M 3793.588 -682.694 C 3025.969 -736.523 2924.115 532.653 1459.81 920.823 C -4.496 1308.992 -1303.947 1871.655 -1410.287 1873.104 Q 1014.1 921.003 1448.409 854.8 C 1882.717 788.596 4561.205 -628.865 3793.588 -682.694 Z " fill="rgb(255,255,255)" vector-effect="non-scaling-stroke" stroke-width="1" stroke="rgb(232,232,232)" stroke-linejoin="miter" stroke-linecap="square" stroke-miterlimit="3"/><path d=" M 3782.357 -747.731 C 3014.738 -801.561 2912.884 467.615 1448.579 855.785 C -15.727 1243.955 -1315.178 1806.617 -1421.518 1808.067 Q 1002.869 855.966 1437.178 789.762 C 1871.486 723.559 4549.975 -693.902 3782.357 -747.731 Z " fill="rgb(255,255,255)" vector-effect="non-scaling-stroke" stroke-width="1" stroke="rgb(232,232,232)" stroke-linejoin="miter" stroke-linecap="square" stroke-miterlimit="3"/><path d=" M 3782.357 -747.731 C 3014.738 -801.561 2912.884 467.615 1448.579 855.785 C -15.727 1243.955 -1315.178 1806.617 -1421.518 1808.067 Q 1002.869 855.966 1437.178 789.762 C 1871.486 723.559 4549.975 -693.902 3782.357 -747.731 Z " fill="rgb(255,255,255)" vector-effect="non-scaling-stroke" stroke-width="1" stroke="rgb(232,232,232)" stroke-linejoin="miter" stroke-linecap="square" stroke-miterlimit="3"/></g><g><path d=" M -2232.824 -1796.365 C -849.824 -1796.031 -1166.49 -996.698 -699.824 -846.365 C -233.157 -696.031 -383.824 -262.031 -1166.824 -262.365 Q -1949.824 -262.698 -2782.824 -262.365 L -2782.824 -1796.365 Q -3615.824 -1796.698 -2232.824 -1796.365 Z " fill="rgb(255,255,255)" vector-effect="non-scaling-stroke" stroke-width="1" stroke="rgb(209,209,209)" stroke-linejoin="miter" stroke-linecap="square" stroke-miterlimit="3"/><path d=" M -2232.824 -1792.365 C -849.824 -1792.031 -1166.49 -992.698 -699.824 -842.365 C -233.157 -692.031 -383.824 -258.031 -1166.824 -258.365 Q -1949.824 -258.698 -2782.824 -258.365 L -2782.824 -1792.365 Q -3615.824 -1792.698 -2232.824 -1792.365 Z " fill="rgb(255,255,255)" vector-effect="non-scaling-stroke" stroke-width="1" stroke="rgb(209,209,209)" stroke-linejoin="miter" stroke-linecap="square" stroke-miterlimit="3"/><path d=" M -2232.824 -1702.365 C -849.824 -1702.031 -1166.49 -902.698 -699.824 -752.365 C -233.157 -602.031 -383.824 -168.031 -1166.824 -168.365 Q -1949.824 -168.698 -2782.824 -168.365 L -2782.824 -1702.365 Q -3615.824 -1702.698 -2232.824 -1702.365 Z " fill="rgb(255,255,255)" vector-effect="non-scaling-stroke" stroke-width="1" stroke="rgb(209,209,209)" stroke-linejoin="miter" stroke-linecap="square" stroke-miterlimit="3"/><path d=" M -2232.824 -1612.365 C -849.824 -1612.031 -1166.49 -812.698 -699.824 -662.365 C -233.157 -512.031 -383.824 -78.031 -1166.824 -78.365 Q -1949.824 -78.698 -2782.824 -78.365 L -2782.824 -1612.365 Q -3615.824 -1612.698 -2232.824 -1612.365 Z " fill="rgb(255,255,255)" vector-effect="non-scaling-stroke" stroke-width="1" stroke="rgb(209,209,209)" stroke-linejoin="miter" stroke-linecap="square" stroke-miterlimit="3"/><path d=" M -2232.824 -1522.365 C -849.824 -1522.031 -1166.49 -722.698 -699.824 -572.365 C -233.157 -422.031 -383.824 11.969 -1166.824 11.635 Q -1949.824 11.302 -2782.824 11.635 L -2782.824 -1522.365 Q -3615.824 -1522.698 -2232.824 -1522.365 Z " fill="rgb(255,255,255)" vector-effect="non-scaling-stroke" stroke-width="1" stroke="rgb(209,209,209)" stroke-linejoin="miter" stroke-linecap="square" stroke-miterlimit="3"/><path d=" M -2232.824 -1432.365 C -849.824 -1432.031 -1166.49 -632.698 -699.824 -482.365 C -233.157 -332.031 -383.824 101.969 -1166.824 101.635 Q -1949.824 101.302 -2782.824 101.635 L -2782.824 -1432.365 Q -3615.824 -1432.698 -2232.824 -1432.365 Z " fill="rgb(255,255,255)" vector-effect="non-scaling-stroke" stroke-width="1" stroke="rgb(209,209,209)" stroke-linejoin="miter" stroke-linecap="square" stroke-miterlimit="3"/><path d=" M -2232.824 -1342.365 C -849.824 -1342.031 -1166.49 -542.698 -699.824 -392.365 C -233.157 -242.031 -383.824 191.969 -1166.824 191.635 Q -1949.824 191.302 -2782.824 191.635 L -2782.824 -1342.365 Q -3615.824 -1342.698 -2232.824 -1342.365 Z " fill="rgb(255,255,255)" vector-effect="non-scaling-stroke" stroke-width="1" stroke="rgb(209,209,209)" stroke-linejoin="miter" stroke-linecap="square" stroke-miterlimit="3"/><path d=" M -2232.824 -1252.365 C -849.824 -1252.031 -1166.49 -452.698 -699.824 -302.365 C -233.157 -152.031 -383.824 281.969 -1166.824 281.635 Q -1949.824 281.302 -2782.824 281.635 L -2782.824 -1252.365 Q -3615.824 -1252.698 -2232.824 -1252.365 Z " fill="rgb(255,255,255)" vector-effect="non-scaling-stroke" stroke-width="1" stroke="rgb(209,209,209)" stroke-linejoin="miter" stroke-linecap="square" stroke-miterlimit="3"/><path d=" M -2232.824 -1162.365 C -849.824 -1162.031 -1166.49 -362.698 -699.824 -212.365 C -233.157 -62.031 -383.824 371.969 -1166.824 371.635 Q -1949.824 371.302 -2782.824 371.635 L -2782.824 -1162.365 Q -3615.824 -1162.698 -2232.824 -1162.365 Z " fill="rgb(255,255,255)" vector-effect="non-scaling-stroke" stroke-width="1" stroke="rgb(209,209,209)" stroke-linejoin="miter" stroke-linecap="square" stroke-miterlimit="3"/><path d=" M -2232.824 -1072.365 C -849.824 -1072.031 -1166.49 -272.698 -699.824 -122.365 C -233.157 27.969 -383.824 461.969 -1166.824 461.635 Q -1949.824 461.302 -2782.824 461.635 L -2782.824 -1072.365 Q -3615.824 -1072.698 -2232.824 -1072.365 Z " fill="rgb(255,255,255)" vector-effect="non-scaling-stroke" stroke-width="1" stroke="rgb(209,209,209)" stroke-linejoin="miter" stroke-linecap="square" stroke-miterlimit="3"/></g></g></g></svg>