<?xml version="1.0" standalone="no"?><!-- Generator: Gravit.io --><svg xmlns="http://www.w3.org/2000/svg" xmlns:xlink="http://www.w3.org/1999/xlink" style="isolation:isolate" viewBox="593.125 320.637 129.751 135.726" width="129.751" height="135.726"><defs><clipPath id="_clipPath_ae7LKw6oPMhI9f4TkKtEMOQpHXB0m6TI"><rect x="593.125" y="320.637" width="129.751" height="135.726"/></clipPath></defs><g clip-path="url(#_clipPath_ae7LKw6oPMhI9f4TkKtEMOQpHXB0m6TI)"><defs><filter id="ilzIIAbXClTSQwvWUHSkFnhSnGIBAo0w" x="-200%" y="-200%" width="400%" height="400%" filterUnits="objectBoundingBox" color-interpolation-filters="sRGB"><feGaussianBlur xmlns="http://www.w3.org/2000/svg" in="SourceGraphic" stdDeviation="2.146804531419514"/><feOffset xmlns="http://www.w3.org/2000/svg" dx="0" dy="0" result="pf_100_offsetBlur"/><feFlood xmlns="http://www.w3.org/2000/svg" flood-color="#000000" flood-opacity="0.65"/><feComposite xmlns="http://www.w3.org/2000/svg" in2="pf_100_offsetBlur" operator="in" result="pf_100_dropShadow"/><feBlend xmlns="http://www.w3.org/2000/svg" in="SourceGraphic" in2="pf_100_dropShadow" mode="normal"/></filter></defs><g filter="url(#ilzIIAbXClTSQwvWUHSkFnhSnGIBAo0w)"><path d=" M 692.404 420.089 L 671.457 431.023 L 650.51 441.957 C 622.205 456.732 600.327 442.828 601.685 410.928 L 602.689 387.32 L 603.694 363.712 C 605.051 331.812 628.031 319.817 654.979 336.943 L 674.921 349.617 L 694.864 362.291 C 721.811 379.416 720.709 405.315 692.404 420.089 Z " fill="rgb(235,235,235)" vector-effect="non-scaling-stroke" stroke-width="1" stroke="rgb(162,162,162)" stroke-linejoin="miter" stroke-linecap="square" stroke-miterlimit="3"/><clipPath id="_clipPath_G0tfN842U42Ou1Zt18JDkBwgdfrhMU5I"><path d=" M 692.404 420.089 L 671.457 431.023 L 650.51 441.957 C 622.205 456.732 600.327 442.828 601.685 410.928 L 602.689 387.32 L 603.694 363.712 C 605.051 331.812 628.031 319.817 654.979 336.943 L 674.921 349.617 L 694.864 362.291 C 721.811 379.416 720.709 405.315 692.404 420.089 Z " fill="rgb(235,235,235)" vector-effect="non-scaling-stroke" stroke-width="1" stroke="rgb(162,162,162)" stroke-linejoin="miter" stroke-linecap="square" stroke-miterlimit="3"/></clipPath><g clip-path="url(#_clipPath_G0tfN842U42Ou1Zt18JDkBwgdfrhMU5I)"><path d=" M 640.75 366.5 L 622 391.5 L 640.75 391.5 L 628.25 416.5 L 672 385.25 L 647 385.25 L 665.75 366.5 L 640.75 366.5 Z " fill="rgb(0,0,0)"/></g><path d=" M 692.404 420.089 L 671.457 431.023 L 650.51 441.957 C 622.205 456.732 600.327 442.828 601.685 410.928 L 602.689 387.32 L 603.694 363.712 C 605.051 331.812 628.031 319.817 654.979 336.943 L 674.921 349.617 L 694.864 362.291 C 721.811 379.416 720.709 405.315 692.404 420.089 Z " fill="transparent" vector-effect="non-scaling-stroke" stroke-width="1" stroke="rgb(162,162,162)" stroke-linejoin="miter" stroke-linecap="square" stroke-miterlimit="3"/></g></g></svg>