<?xml version="1.0" standalone="no"?><!-- Generator: Gravit.io --><svg xmlns="http://www.w3.org/2000/svg" xmlns:xlink="http://www.w3.org/1999/xlink" style="isolation:isolate" viewBox="593.552 324.849 128.896 127.302" width="128.896" height="127.302"><defs><clipPath id="_clipPath_Kfl9UDVFg0f6R8zkhKwYTsPafSOApUOM"><rect x="593.552" y="324.849" width="128.896" height="127.302"/></clipPath></defs><g clip-path="url(#_clipPath_Kfl9UDVFg0f6R8zkhKwYTsPafSOApUOM)"><path d=" M 721.684 385.038 L 715.159 406.158 L 708.634 427.279 C 706.609 433.836 699.532 440.397 692.84 441.921 L 671.287 446.831 L 649.734 451.74 C 643.042 453.264 633.822 450.416 629.156 445.383 L 614.128 429.172 L 599.099 412.961 C 594.434 407.929 592.29 398.519 594.316 391.962 L 600.841 370.842 L 607.366 349.721 C 609.391 343.164 616.468 336.603 623.16 335.079 L 644.713 330.169 L 666.266 325.26 C 672.958 323.736 682.178 326.584 686.844 331.617 L 701.872 347.828 L 716.901 364.039 C 721.566 369.071 723.71 378.481 721.684 385.038 Z " fill="rgb(235,235,235)"/><clipPath id="_clipPath_Yf49Y6lJkZ5CO9lkwqlTInffBD1Z4E57"><path d=" M 721.684 385.038 L 715.159 406.158 L 708.634 427.279 C 706.609 433.836 699.532 440.397 692.84 441.921 L 671.287 446.831 L 649.734 451.74 C 643.042 453.264 633.822 450.416 629.156 445.383 L 614.128 429.172 L 599.099 412.961 C 594.434 407.929 592.29 398.519 594.316 391.962 L 600.841 370.842 L 607.366 349.721 C 609.391 343.164 616.468 336.603 623.16 335.079 L 644.713 330.169 L 666.266 325.26 C 672.958 323.736 682.178 326.584 686.844 331.617 L 701.872 347.828 L 716.901 364.039 C 721.566 369.071 723.71 378.481 721.684 385.038 Z " fill="rgb(235,235,235)"/></clipPath><g clip-path="url(#_clipPath_Yf49Y6lJkZ5CO9lkwqlTInffBD1Z4E57)"><path d=" M 692.107 416.142 L 654.542 381.942 L 656.291 380.19 C 657.719 378.757 658.495 376.903 658.613 375.014 C 658.684 374.983 658.749 374.953 658.815 374.913 L 665.866 370.505 C 666.821 369.383 666.751 367.612 665.708 366.569 L 653.442 354.273 C 652.404 353.23 650.633 353.16 649.516 354.115 L 645.116 361.188 C 645.081 361.254 645.05 361.324 645.02 361.39 C 643.135 361.508 641.286 362.284 639.857 363.717 L 633.188 370.408 C 631.755 371.841 630.983 373.695 630.865 375.584 C 630.795 375.614 630.729 375.645 630.663 375.685 L 623.612 380.093 C 622.657 381.215 622.727 382.985 623.77 384.028 L 636.036 396.325 C 637.075 397.368 638.845 397.438 639.963 396.483 L 644.362 389.41 C 644.397 389.344 644.428 389.274 644.463 389.208 C 646.347 389.09 648.197 388.314 649.625 386.881 L 651.562 384.94 L 685.669 422.61 C 686.66 423.701 688.181 423.876 689.057 423 L 692.506 419.542 C 693.378 418.666 693.203 417.136 692.116 416.146 L 692.107 416.142 Z " fill="rgb(0,0,0)"/></g></g></svg>