<?xml version="1.0" standalone="no"?><!-- Generator: Gravit.io --><svg xmlns="http://www.w3.org/2000/svg" xmlns:xlink="http://www.w3.org/1999/xlink" style="isolation:isolate" viewBox="542.417 272.805 231.166 231.391" width="231.166" height="231.391"><defs><clipPath id="_clipPath_FVuNF8BcquQNxhP1JFN5hsvOXE9IUKRj"><rect x="542.417" y="272.805" width="231.166" height="231.391"/></clipPath></defs><g clip-path="url(#_clipPath_FVuNF8BcquQNxhP1JFN5hsvOXE9IUKRj)"><path d=" M 770.777 424.555 L 754.402 450.158 L 738.027 475.76 C 718.357 474.866 693.773 487.607 683.164 504.195 L 652.804 502.815 L 622.444 501.435 C 613.383 483.953 590.057 469.034 570.387 468.14 L 556.402 441.158 L 542.417 414.175 C 553.026 397.587 554.284 369.927 545.223 352.445 L 561.598 326.842 L 577.973 301.24 C 597.643 302.134 622.227 289.393 632.836 272.805 L 663.196 274.185 L 693.556 275.565 C 702.617 293.047 725.943 307.966 745.613 308.86 L 759.598 335.842 L 773.583 362.825 C 762.974 379.413 761.716 407.073 770.777 424.555 Z " fill="rgb(235,235,235)"/></g></svg>