<?xml version="1.0" standalone="no"?><!-- Generator: Gravit.io --><svg xmlns="http://www.w3.org/2000/svg" xmlns:xlink="http://www.w3.org/1999/xlink" style="isolation:isolate" viewBox="592.802 326.51 130.397 123.981" width="130.397" height="123.981"><defs><clipPath id="_clipPath_HhTbRFI05LQ0CKbUmmkYxSFsWyRfJbTw"><rect x="592.802" y="326.51" width="130.397" height="123.981"/></clipPath></defs><g clip-path="url(#_clipPath_HhTbRFI05LQ0CKbUmmkYxSFsWyRfJbTw)"><path d=" M 721.666 392.277 L 712.79 412.522 L 703.914 432.767 C 701.158 439.052 693.383 444.769 686.562 445.525 L 664.591 447.961 L 642.62 450.396 C 635.799 451.152 626.961 447.277 622.896 441.748 L 609.801 423.938 L 596.707 406.129 C 592.641 400.6 591.578 391.008 594.334 384.723 L 603.21 364.478 L 612.086 344.233 C 614.842 337.948 622.617 332.231 629.438 331.475 L 651.409 329.039 L 673.38 326.604 C 680.201 325.848 689.039 329.723 693.104 335.252 L 706.199 353.062 L 719.293 370.871 C 723.359 376.4 724.422 385.992 721.666 392.277 Z " fill="rgb(235,235,235)"/><clipPath id="_clipPath_2WkioAkxuM3QYNVrBPJgSGgWmoxkZYz8"><path d=" M 721.666 392.277 L 712.79 412.522 L 703.914 432.767 C 701.158 439.052 693.383 444.769 686.562 445.525 L 664.591 447.961 L 642.62 450.396 C 635.799 451.152 626.961 447.277 622.896 441.748 L 609.801 423.938 L 596.707 406.129 C 592.641 400.6 591.578 391.008 594.334 384.723 L 603.21 364.478 L 612.086 344.233 C 614.842 337.948 622.617 332.231 629.438 331.475 L 651.409 329.039 L 673.38 326.604 C 680.201 325.848 689.039 329.723 693.104 335.252 L 706.199 353.062 L 719.293 370.871 C 723.359 376.4 724.422 385.992 721.666 392.277 Z " fill="rgb(235,235,235)"/></clipPath><g clip-path="url(#_clipPath_2WkioAkxuM3QYNVrBPJgSGgWmoxkZYz8)"><path d=" M 672.539 375.839 L 667.457 371.397 L 642.047 393.628 C 637.837 397.312 637.837 403.284 642.047 406.964 C 646.258 410.645 653.083 410.649 657.293 406.964 L 687.785 380.286 C 694.805 374.148 694.805 364.194 687.785 358.055 C 680.766 351.917 669.39 351.913 662.375 358.055 L 630.361 386.065 C 630.336 386.087 630.311 386.105 630.291 386.122 C 620.503 394.688 620.503 408.568 630.291 417.129 C 640.08 425.69 655.942 425.69 665.73 417.129 C 665.75 417.112 665.77 417.09 665.795 417.068 L 665.8 417.072 L 687.655 397.952 L 682.573 393.509 L 660.718 412.625 C 660.693 412.643 660.673 412.665 660.653 412.682 C 653.683 418.781 642.348 418.781 635.378 412.682 C 628.409 406.583 628.409 396.668 635.378 390.569 C 635.403 390.547 635.423 390.53 635.448 390.512 L 635.443 390.508 L 667.462 362.498 C 671.663 358.818 678.503 358.818 682.708 362.498 C 686.914 366.178 686.909 372.159 682.708 375.835 L 652.216 402.513 C 650.815 403.74 648.536 403.74 647.134 402.513 C 645.733 401.286 645.733 399.293 647.134 398.07 L 672.544 375.835 L 672.539 375.839 Z " fill="rgb(0,0,0)"/></g></g></svg>